<?xml version="1.0" encoding="utf-8"?>
<!-- Generator: Adobe Illustrator 23.1.0, SVG Export Plug-In . SVG Version: 6.00 Build 0)  -->
<svg version="1.1" xmlns="http://www.w3.org/2000/svg" xmlns:xlink="http://www.w3.org/1999/xlink" x="0px" y="0px"
	 viewBox="0 0 500 500" style="enable-background:new 0 0 500 500;" xml:space="preserve">
<style type="text/css">
	.st0{display:none;}
	.st1{display:inline;fill:#FFFFFF;}
	.st2{fill:#FFFFFF;}
</style>
<g id="Lager_1" class="st0">
	<polygon class="st1" points="0,0 0,500 500,250 	"/>
</g>
<g id="Lager_2" class="st0">
	<rect y="0" class="st1" width="166.67" height="500"/>
	<rect x="333.33" y="0" class="st1" width="166.67" height="500"/>
</g>
<g id="Lager_3">
	<rect x="333.33" y="0" class="st2" width="166.67" height="500"/>
	<polygon class="st2" points="0,0 0,500 500,250 	"/>
</g>
<g id="Lager_4" class="st0">
	<rect y="0" transform="matrix(-1 -1.224647e-16 1.224647e-16 -1 166.6667 500)" class="st1" width="166.67" height="500"/>
	<polygon class="st1" points="500,500 500,0 0,250 	"/>
</g>
<g id="Lager_5" class="st0">
	<polygon class="st1" points="0,187.5 0,312.5 125,375 125,125 	"/>
	<rect x="225" y="125" transform="matrix(0.7071 0.7071 -0.7071 0.7071 250 -103.5534)" class="st1" width="50" height="250"/>
	<rect x="225" y="125" transform="matrix(0.7071 -0.7071 0.7071 0.7071 -103.5534 250)" class="st1" width="50" height="250"/>
</g>
<g id="Lager_7" class="st0">
	<polygon class="st1" points="0,187.5 0,312.5 125,375 125,125 	"/>
	<path class="st1" d="M208.38,391.02l-22.83-44.49c35.98-18.46,58.33-55.03,58.33-95.43c0-40.4-22.35-76.97-58.33-95.43l22.83-44.49
		c52.74,27.06,85.51,80.67,85.51,139.91S261.12,363.96,208.38,391.02z"/>
</g>
<g id="Lager_8" class="st0">
	<polygon class="st1" points="0,187.5 0,312.5 125,375 125,125 	"/>
	<path class="st1" d="M208.38,391.02l-22.83-44.49c35.98-18.46,58.33-55.03,58.33-95.43c0-40.4-22.35-76.97-58.33-95.43l22.83-44.49
		c52.74,27.06,85.51,80.67,85.51,139.91S261.12,363.96,208.38,391.02z"/>
	<path class="st1" d="M280.45,441.02l-22.83-44.49c54.83-28.13,88.89-83.86,88.89-145.43s-34.06-117.29-88.89-145.43l22.83-44.49
		c34.38,17.64,63.38,44.32,83.85,77.15c21.07,33.78,32.21,72.78,32.21,112.77c0,39.99-11.14,78.99-32.21,112.77
		C343.82,396.7,314.83,423.38,280.45,441.02z"/>
</g>
<g id="Lager_6" class="st0">
	<polygon class="st1" points="0,187.5 0,312.5 125,375 125,125 	"/>
	<path class="st1" d="M208.38,391.02l-22.83-44.49c35.98-18.46,58.33-55.03,58.33-95.43c0-40.4-22.35-76.97-58.33-95.43l22.83-44.49
		c52.74,27.06,85.51,80.67,85.51,139.91S261.12,363.96,208.38,391.02z"/>
	<path class="st1" d="M280.45,441.02l-22.83-44.49c54.83-28.13,88.89-83.86,88.89-145.43s-34.06-117.29-88.89-145.43l22.83-44.49
		c34.38,17.64,63.38,44.32,83.85,77.15c21.07,33.78,32.21,72.78,32.21,112.77c0,39.99-11.14,78.99-32.21,112.77
		C343.82,396.7,314.83,423.38,280.45,441.02z"/>
	<path class="st1" d="M353.41,490.95l-22.83-44.49C404.24,408.67,450,333.82,450,251.1c0-82.71-45.76-157.57-119.41-195.36
		l22.83-44.49c43.42,22.28,80.05,55.97,105.91,97.44C485.93,151.35,500,200.6,500,251.1c0,50.51-14.07,99.75-40.68,142.41
		C433.46,434.98,396.84,468.67,353.41,490.95z"/>
</g>
</svg>
