<?xml version="1.0" encoding="utf-8"?>
<!-- Generator: Adobe Illustrator 23.1.0, SVG Export Plug-In . SVG Version: 6.00 Build 0)  -->
<svg version="1.1" xmlns="http://www.w3.org/2000/svg" xmlns:xlink="http://www.w3.org/1999/xlink" x="0px" y="0px"
	 viewBox="0 0 1000 500" style="enable-background:new 0 0 1000 500;" xml:space="preserve">
<style type="text/css">
	.st0{display:none;}
	.st1{display:inline;fill:#FFFFFF;}
	.st2{fill:#FFFFFF;}
	.st3{display:inline;}
</style>
<g id="Lager_1" class="st0">
	
		<image style="display:inline;overflow:visible;" width="1024" height="1010" xlink:href="../../ikoner/depositphotos_33206749-stock-illustration-videoaudio-player-buttons.jpg"  transform="matrix(1 0 0 1 -1085.2683 -159.7796)">
	</image>
</g>
<g id="Lager_2" class="st0">
	<path class="st1" d="M50,80.9L388.2,250L50,419.1V80.9 M0,0v500l500-250L0,0L0,0z"/>
</g>
<g id="Lager_3">
	<rect x="325" y="0" class="st2" width="50" height="500"/>
	<rect x="125" y="0" class="st2" width="50" height="500"/>
</g>
<g id="Lager_4" class="st0">
	<path class="st1" d="M50,80.9L388.2,250L50,419.1V80.9 M0,0v500l500-250L0,0L0,0z"/>
	<rect x="500" y="0" class="st1" width="50" height="500"/>
</g>
<g id="Lager_5" class="st0">
	<path class="st1" d="M500,419.1L161.8,250L500,80.9V419.1 M550,500V0L50,250L550,500L550,500z"/>
	<rect y="0" transform="matrix(-1 -1.224647e-16 1.224647e-16 -1 50 500)" class="st1" width="50" height="500"/>
</g>
<g id="Lager_6" class="st0">
	<polygon class="st1" points="0,76 644,76 644,430.2 424,430.2 424,500 220,398 424,296 424,365.8 579.6,365.8 579.6,140.4 
		64.4,140.4 64.4,365.8 161,365.8 161,430.2 0,430.2 	"/>
</g>
<g id="Lager_7" class="st0">
	
		<rect x="582.5" y="125" transform="matrix(-0.7071 -0.7071 0.7071 -0.7071 860.2178 856.3138)" class="st1" width="50" height="250"/>
	
		<rect x="582.5" y="125" transform="matrix(-0.7071 0.7071 -0.7071 -0.7071 1213.7711 -2.7605)" class="st1" width="50" height="250"/>
	<g class="st3">
		<path class="st2" d="M351.4,80.9v338.2l-177.6-88.8l-10.6-5.3h-11.8H50V175h101.4h11.8l10.6-5.3L351.4,80.9 M401.4,0l-250,125H0
			v250h151.4l250,125V0L401.4,0z"/>
	</g>
</g>
<g id="Lager_8" class="st0">
	<path class="st1" d="M533.3,339.8L501.4,308c32-32,32-84,0-115.9l31.9-31.9C582.8,209.7,582.8,290.3,533.3,339.8z"/>
	<g class="st3">
		<path class="st2" d="M351.4,80.9v338.2l-177.6-88.8l-10.6-5.3h-11.8H50V175h101.4h11.8l10.6-5.3L351.4,80.9 M401.4,0l-250,125H0
			v250h151.4l250,125V0L401.4,0z"/>
	</g>
</g>
<g id="Lager_9" class="st0">
	<path class="st1" d="M533.3,339.8L501.4,308c32-32,32-84,0-115.9l31.9-31.9C582.8,209.7,582.8,290.3,533.3,339.8z"/>
	<path class="st1" d="M636.7,416.2l-31.9-31.9c74.1-74.1,74.1-194.6,0-268.7l31.9-31.9c44.4,44.4,68.9,103.4,68.9,166.2
		C705.6,312.8,681.1,371.8,636.7,416.2z"/>
	<g class="st3">
		<path class="st2" d="M351.4,80.9v338.2l-177.6-88.8l-10.6-5.3h-11.8H50V175h101.4h11.8l10.6-5.3L351.4,80.9 M401.4,0l-250,125H0
			v250h151.4l250,125V0L401.4,0z"/>
	</g>
</g>
<g id="Lager_10" class="st0">
	<g class="st3">
		<path class="st2" d="M351.4,80.9v338.2l-177.6-88.8l-10.6-5.3h-11.8H50V175h101.4h11.8l10.6-5.3L351.4,80.9 M401.4,0l-250,125H0
			v250h151.4l250,125V0L401.4,0z"/>
	</g>
	<path class="st1" d="M533.3,339.8L501.4,308c32-32,32-84,0-115.9l31.9-31.9C582.8,209.7,582.8,290.3,533.3,339.8z"/>
	<path class="st1" d="M636.7,416.2l-31.9-31.9c74.1-74.1,74.1-194.6,0-268.7l31.9-31.9c44.4,44.4,68.9,103.4,68.9,166.2
		C705.6,312.8,681.1,371.8,636.7,416.2z"/>
	<path class="st1" d="M741.1,500l-31.9-31.9c120.3-120.3,120.3-316,0-436.2L741.1,0c33.7,33.7,59.9,73.1,77.7,117
		c17.2,42.4,25.9,87.1,25.9,133c0,45.9-8.7,90.7-25.9,133C800.9,426.9,774.8,466.3,741.1,500z"/>
</g>
</svg>
