<?xml version="1.0" encoding="utf-8"?>
<!-- Generator: Adobe Illustrator 23.1.0, SVG Export Plug-In . SVG Version: 6.00 Build 0)  -->
<svg version="1.1" id="Lager_1" xmlns="http://www.w3.org/2000/svg" xmlns:xlink="http://www.w3.org/1999/xlink" x="0px" y="0px"
	 viewBox="0 0 1000 500" style="enable-background:new 0 0 1000 500;" xml:space="preserve">
<style type="text/css">
	.st0{display:none;}
	.st1{display:inline;fill:#FFFFFF;}
	.st2{fill:#FF0000;}
	.st3{display:inline;}
	.st4{fill:#FFFFFF;}
</style>
<g class="st0">
	
		<image style="display:inline;overflow:visible;enable-background:new    ;" width="1024" height="1010" xlink:href="../../ikoner/depositphotos_33206749-stock-illustration-videoaudio-player-buttons.jpg"  transform="matrix(1 0 0 1 -1085.2683 -159.7796)">
	</image>
</g>
<g class="st0">
	<path class="st1" d="M50,80.9L388.2,250L50,419.1V80.9 M0,0v500l500-250L0,0L0,0z"/>
</g>
<g id="Lager_3" class="st0">
	<rect x="325" class="st1" width="50" height="500"/>
	<rect x="125" class="st1" width="50" height="500"/>
</g>
<g id="Lager_4" class="st0">
	<path class="st1" d="M50,80.9L388.2,250L50,419.1V80.9 M0,0v500l500-250L0,0L0,0z"/>
	<rect x="500" class="st1" width="50" height="500"/>
</g>
<g id="Lager_5" class="st0">
	<path class="st1" d="M500,419.1L161.8,250L500,80.9V419.1 M550,500V0L50,250L550,500L550,500z"/>
	<rect class="st1" width="50" height="500"/>
</g>
<g id="Lager_6_1_">
	<polygon class="st2" points="948.8,106.5 467.8,106.5 467.8,55.4 1000,55.4 1000,444.6 752.2,444.6 752.2,500 589.9,419 
		752.2,338.1 752.2,393.5 948.8,393.5 948.8,106.5 	"/>
	<polygon class="st2" points="51.2,106.5 51.2,393.5 534.4,393.5 534.4,444.6 0,444.6 0,55.4 250,55.4 250,0 412.3,81 250,161.9 
		250,106.5 51.2,106.5 	"/>
</g>
<g id="Lager_7" class="st0">
	<rect x="482.4" y="225" transform="matrix(0.7071 -0.7071 0.7071 0.7071 1.1526 502.7337)" class="st1" width="250" height="50"/>
	<rect x="582.4" y="125" transform="matrix(0.7071 -0.7071 0.7071 0.7071 1.1167 502.7513)" class="st1" width="50" height="250"/>
	<g class="st3">
		<path class="st4" d="M351.4,80.9v338.2l-177.6-88.8l-10.6-5.3h-11.8H50V175h101.4h11.8l10.6-5.3L351.4,80.9 M401.4,0l-250,125H0
			v250h151.4l250,125V0L401.4,0z"/>
	</g>
</g>
<g id="Lager_8" class="st0">
	<path class="st1" d="M533.3,339.8L501.4,308c32-32,32-84,0-115.9l31.9-31.9C582.8,209.7,582.8,290.3,533.3,339.8z"/>
	<g class="st3">
		<path class="st4" d="M351.4,80.9v338.2l-177.6-88.8l-10.6-5.3h-11.8H50V175h101.4h11.8l10.6-5.3L351.4,80.9 M401.4,0l-250,125H0
			v250h151.4l250,125V0L401.4,0z"/>
	</g>
</g>
<g id="Lager_9" class="st0">
	<path class="st1" d="M533.3,339.8L501.4,308c32-32,32-84,0-115.9l31.9-31.9C582.8,209.7,582.8,290.3,533.3,339.8z"/>
	<path class="st1" d="M636.7,416.2l-31.9-31.9c74.1-74.1,74.1-194.6,0-268.7l31.9-31.9c44.4,44.4,68.9,103.4,68.9,166.2
		C705.6,312.8,681.1,371.8,636.7,416.2z"/>
	<g class="st3">
		<path class="st4" d="M351.4,80.9v338.2l-177.6-88.8l-10.6-5.3h-11.8H50V175h101.4h11.8l10.6-5.3L351.4,80.9 M401.4,0l-250,125H0
			v250h151.4l250,125V0L401.4,0z"/>
	</g>
</g>
<g id="Lager_10" class="st0">
	<g class="st3">
		<path class="st4" d="M351.4,80.9v338.2l-177.6-88.8l-10.6-5.3h-11.8H50V175h101.4h11.8l10.6-5.3L351.4,80.9 M401.4,0l-250,125H0
			v250h151.4l250,125V0L401.4,0z"/>
	</g>
	<path class="st1" d="M533.3,339.8L501.4,308c32-32,32-84,0-115.9l31.9-31.9C582.8,209.7,582.8,290.3,533.3,339.8z"/>
	<path class="st1" d="M636.7,416.2l-31.9-31.9c74.1-74.1,74.1-194.6,0-268.7l31.9-31.9c44.4,44.4,68.9,103.4,68.9,166.2
		C705.6,312.8,681.1,371.8,636.7,416.2z"/>
	<path class="st1" d="M741.1,500l-31.9-31.9c120.3-120.3,120.3-316,0-436.2L741.1,0c33.7,33.7,59.9,73.1,77.7,117
		c17.2,42.4,25.9,87.1,25.9,133s-8.7,90.7-25.9,133C800.9,426.9,774.8,466.3,741.1,500z"/>
</g>
</svg>
