<?xml version="1.0" encoding="utf-8"?>
<!-- Generator: Adobe Illustrator 23.1.0, SVG Export Plug-In . SVG Version: 6.00 Build 0)  -->
<svg version="1.1" id="Lager_1" xmlns="http://www.w3.org/2000/svg" xmlns:xlink="http://www.w3.org/1999/xlink" x="0px" y="0px"
	 viewBox="0 0 500 500" style="enable-background:new 0 0 500 500;" xml:space="preserve">
<style type="text/css">
	.st0{display:none;}
	.st1{display:inline;fill:#FFFFFF;}
	.st2{fill:#FFFFFF;}
</style>
<g class="st0">
	<polygon class="st1" points="125,125 125,375 375,250 	"/>
</g>
<g class="st0">
	<rect x="125" y="125" class="st1" width="83.3" height="250"/>
	<rect x="291.7" y="125" class="st1" width="83.3" height="250"/>
</g>
<g id="Lager_3" class="st0">
	<rect x="333.3" y="125" class="st1" width="83.3" height="250"/>
	<polygon class="st1" points="83.3,125 83.3,375 333.3,250 	"/>
</g>
<g id="Lager_4" class="st0">
	<rect x="83.3" y="125" class="st1" width="83.3" height="250"/>
	<polygon class="st1" points="416.7,375 416.7,125 166.7,250 	"/>
</g>
<g id="Lager_5" class="st0">
	
		<rect x="329.8" y="187.5" transform="matrix(0.7071 -0.7071 0.7071 0.7071 -74.0526 321.1434)" class="st1" width="41.7" height="125"/>
	
		<rect x="288.1" y="229.2" transform="matrix(0.7071 -0.7071 0.7071 0.7071 -74.1012 321.1628)" class="st1" width="125" height="41.7"/>
	<polygon class="st1" points="125,166.7 41.7,166.7 41.7,333.3 125,333.3 208.3,375 208.3,125 	"/>
</g>
<g id="Lager_7" class="st0">
	<rect x="250" y="187.5" class="st1" width="41.7" height="125"/>
	<polygon class="st1" points="125,166.7 41.7,166.7 41.7,333.3 125,333.3 208.3,375 208.3,125 	"/>
</g>
<g id="Lager_6" class="st0">
	<rect x="250" y="187.5" class="st1" width="41.7" height="125"/>
	<polygon class="st1" points="125,166.7 41.7,166.7 41.7,333.3 125,333.3 208.3,375 208.3,125 	"/>
	<rect x="333.3" y="125" class="st1" width="41.7" height="250"/>
</g>
<polygon class="st2" points="100,150 0,150 0,350 100,350 200,400 200,100 "/>
<rect x="226.3" y="225" transform="matrix(0.7071 -0.7071 0.7071 0.7071 -66.5738 339.2767)" class="st2" width="300" height="50"/>
<rect x="351.3" y="100" transform="matrix(0.7071 -0.7071 0.7071 0.7071 -66.5738 339.2767)" class="st2" width="50" height="300"/>
</svg>
